<?xml version="1.0" encoding="UTF-8" ?>
<!DOCTYPE score-partwise PUBLIC
        "-//Recordare//DTD MusicXML 3.1 Partwise//EN"
        "http://www.musicxml.org/dtds/partwise.dtd">
<score-partwise>
    <part-list>
        <score-part id="flat-notes">
            <part-name>Clean Guitar</part-name>
            <part-abbreviation>el.guit.</part-abbreviation>
            <midi-instrument id="flat-notes">
                <midi-channel>1</midi-channel>
                <midi-bank>1</midi-bank>
                <midi-program>28</midi-program>
                <volume>80</volume>
                <pan>0</pan>
            </midi-instrument>
        </score-part>
    </part-list>
    <part id="flat-notes">
        <measure number="1" id="Bflat-up">
            <direction>
                <direction-type>
                    <words>Bb ↑</words>
                </direction-type>
            </direction>
            <attributes>
                <key>
                    <fifths>-1</fifths>
                    <mode>major</mode>
                </key>
            </attributes>
            <harmony>
                <root>
                    <root-step>C</root-step>
                    <root-alter>0</root-alter>
                </root>
                <kind>other</kind>
                <frame>
                    <frame-strings>6</frame-strings>
                    <frame-frets>5</frame-frets>
                    <first-fret>6</first-fret>
                    <frame-note>
                        <string>6</string>
                        <fret>6</fret>
                    </frame-note>
                </frame>
            </harmony>
            <note>
                <pitch>
                    <step>B</step>
                    <alter>-1</alter>
                    <octave>3</octave>
                </pitch>
                <duration>1</duration>
                <voice>1</voice>
                <type>quarter</type>
                <accidental>flat</accidental>
                <stem>up</stem>
                <notehead>normal</notehead>
                <staff>1</staff>
            </note>
            <note>
                <pitch>
                    <step>B</step>
                    <alter>-1</alter>
                    <octave>3</octave>
                </pitch>
                <duration>1</duration>
                <voice>1</voice>
                <type>quarter</type>
                <stem>up</stem>
                <notehead>normal</notehead>
                <staff>1</staff>
            </note>
            <note>
                <pitch>
                    <step>B</step>
                    <alter>-1</alter>
                    <octave>4</octave>
                </pitch>
                <duration>1</duration>
                <voice>1</voice>
                <type>quarter</type>
                <accidental>flat</accidental>
                <stem>up</stem>
                <notehead>normal</notehead>
                <staff>1</staff>
            </note>
            <note>
                <pitch>
                    <step>B</step>
                    <alter>-1</alter>
                    <octave>4</octave>
                </pitch>
                <duration>1</duration>
                <voice>1</voice>
                <type>quarter</type>
                <stem>up</stem>
                <notehead>normal</notehead>
                <staff>1</staff>
            </note>
            <note>
                <pitch>
                    <step>B</step>
                    <alter>-1</alter>
                    <octave>5</octave>
                </pitch>
                <duration>1</duration>
                <voice>1</voice>
                <type>quarter</type>
                <accidental>flat</accidental>
                <stem>down</stem>
                <notehead>normal</notehead>
                <staff>1</staff>
            </note>
            <note>
                <pitch>
                    <step>B</step>
                    <alter>-1</alter>
                    <octave>5</octave>
                </pitch>
                <duration>1</duration>
                <voice>1</voice>
                <type>quarter</type>
                <stem>down</stem>
                <notehead>normal</notehead>
                <staff>1</staff>
            </note>
            <backup>
                <duration>6</duration>
            </backup>
            <harmony>
                <root>
                    <root-step>C</root-step>
                    <root-alter>0</root-alter>
                </root>
                <kind>other</kind>
                <frame>
                    <frame-strings>6</frame-strings>
                    <frame-frets>5</frame-frets>
                    <first-fret>6</first-fret>
                    <frame-note>
                        <string>6</string>
                        <fret>6</fret>
                    </frame-note>
                </frame>
            </harmony>
            <note>
                <pitch>
                    <step>B</step>
                    <alter>-1</alter>
                    <octave>2</octave>
                </pitch>
                <duration>1</duration>
                <voice>5</voice>
                <type>quarter</type>
                <accidental>flat</accidental>
                <stem>up</stem>
                <staff>2</staff>
                <notations>
                    <technical>
                        <string>6</string>
                        <fret>6</fret>
                    </technical>
                </notations>
            </note>
            <note>
                <pitch>
                    <step>B</step>
                    <alter>-1</alter>
                    <octave>2</octave>
                </pitch>
                <duration>1</duration>
                <voice>5</voice>
                <type>quarter</type>
                <stem>up</stem>
                <staff>2</staff>
                <notations>
                    <technical>
                        <string>5</string>
                        <fret>1</fret>
                    </technical>
                </notations>
            </note>
            <note>
                <pitch>
                    <step>B</step>
                    <alter>-1</alter>
                    <octave>3</octave>
                </pitch>
                <duration>1</duration>
                <voice>5</voice>
                <type>quarter</type>
                <accidental>flat</accidental>
                <stem>up</stem>
                <staff>2</staff>
                <notations>
                    <technical>
                        <string>4</string>
                        <fret>8</fret>
                    </technical>
                </notations>
            </note>
            <note>
                <pitch>
                    <step>B</step>
                    <alter>-1</alter>
                    <octave>3</octave>
                </pitch>
                <duration>1</duration>
                <voice>5</voice>
                <type>quarter</type>
                <stem>up</stem>
                <staff>2</staff>
                <notations>
                    <technical>
                        <string>3</string>
                        <fret>3</fret>
                    </technical>
                </notations>
            </note>
            <note>
                <pitch>
                    <step>B</step>
                    <alter>-1</alter>
                    <octave>4</octave>
                </pitch>
                <duration>1</duration>
                <voice>5</voice>
                <type>quarter</type>
                <accidental>flat</accidental>
                <stem>down</stem>
                <staff>2</staff>
                <notations>
                    <technical>
                        <string>2</string>
                        <fret>11</fret>
                    </technical>
                </notations>
            </note>
            <note>
                <pitch>
                    <step>B</step>
                    <alter>-1</alter>
                    <octave>4</octave>
                </pitch>
                <duration>1</duration>
                <voice>5</voice>
                <type>quarter</type>
                <stem>down</stem>
                <staff>2</staff>
                <notations>
                    <technical>
                        <string>1</string>
                        <fret>6</fret>
                    </technical>
                </notations>
            </note>
        </measure>
        <measure number="2" id="Bflat-down">
            <direction>
                <direction-type>
                    <words>Bb ↓</words>
                </direction-type>
            </direction>
            <attributes>
                <key>
                    <fifths>-1</fifths>
                    <mode>major</mode>
                </key>
            </attributes>
            <harmony>
                <root>
                    <root-step>C</root-step>
                    <root-alter>0</root-alter>
                </root>
                <kind>other</kind>
                <frame>
                    <frame-strings>6</frame-strings>
                    <frame-frets>5</frame-frets>
                    <first-fret>6</first-fret>
                    <frame-note>
                        <string>1</string>
                        <fret>6</fret>
                    </frame-note>
                </frame>
            </harmony>
            <note>
                <pitch>
                    <step>B</step>
                    <alter>-1</alter>
                    <octave>5</octave>
                </pitch>
                <duration>1</duration>
                <voice>1</voice>
                <type>quarter</type>
                <accidental>flat</accidental>
                <stem>down</stem>
                <notehead>normal</notehead>
                <staff>1</staff>
            </note>
            <note>
                <pitch>
                    <step>B</step>
                    <alter>-1</alter>
                    <octave>5</octave>
                </pitch>
                <duration>1</duration>
                <voice>1</voice>
                <type>quarter</type>
                <stem>down</stem>
                <notehead>normal</notehead>
                <staff>1</staff>
            </note>
            <note>
                <pitch>
                    <step>B</step>
                    <alter>-1</alter>
                    <octave>4</octave>
                </pitch>
                <duration>1</duration>
                <voice>1</voice>
                <type>quarter</type>
                <accidental>flat</accidental>
                <stem>down</stem>
                <notehead>normal</notehead>
                <staff>1</staff>
            </note>
            <note>
                <pitch>
                    <step>B</step>
                    <alter>-1</alter>
                    <octave>4</octave>
                </pitch>
                <duration>1</duration>
                <voice>1</voice>
                <type>quarter</type>
                <stem>down</stem>
                <notehead>normal</notehead>
                <staff>1</staff>
            </note>
            <note>
                <pitch>
                    <step>B</step>
                    <alter>-1</alter>
                    <octave>3</octave>
                </pitch>
                <duration>1</duration>
                <voice>1</voice>
                <type>quarter</type>
                <accidental>flat</accidental>
                <stem>up</stem>
                <notehead>normal</notehead>
                <staff>1</staff>
            </note>
            <note>
                <pitch>
                    <step>B</step>
                    <alter>-1</alter>
                    <octave>3</octave>
                </pitch>
                <duration>1</duration>
                <voice>1</voice>
                <type>quarter</type>
                <stem>up</stem>
                <notehead>normal</notehead>
                <staff>1</staff>
            </note>
            <backup>
                <duration>6</duration>
            </backup>
            <harmony>
                <root>
                    <root-step>C</root-step>
                    <root-alter>0</root-alter>
                </root>
                <kind>other</kind>
                <frame>
                    <frame-strings>6</frame-strings>
                    <frame-frets>5</frame-frets>
                    <first-fret>6</first-fret>
                    <frame-note>
                        <string>1</string>
                        <fret>6</fret>
                    </frame-note>
                </frame>
            </harmony>
            <note>
                <pitch>
                    <step>B</step>
                    <alter>-1</alter>
                    <octave>4</octave>
                </pitch>
                <duration>1</duration>
                <voice>5</voice>
                <type>quarter</type>
                <accidental>flat</accidental>
                <stem>down</stem>
                <staff>2</staff>
                <notations>
                    <technical>
                        <string>1</string>
                        <fret>6</fret>
                    </technical>
                </notations>
            </note>
            <note>
                <pitch>
                    <step>B</step>
                    <alter>-1</alter>
                    <octave>4</octave>
                </pitch>
                <duration>1</duration>
                <voice>5</voice>
                <type>quarter</type>
                <stem>down</stem>
                <staff>2</staff>
                <notations>
                    <technical>
                        <string>2</string>
                        <fret>11</fret>
                    </technical>
                </notations>
            </note>
            <note>
                <pitch>
                    <step>B</step>
                    <alter>-1</alter>
                    <octave>3</octave>
                </pitch>
                <duration>1</duration>
                <voice>5</voice>
                <type>quarter</type>
                <accidental>flat</accidental>
                <stem>down</stem>
                <staff>2</staff>
                <notations>
                    <technical>
                        <string>3</string>
                        <fret>3</fret>
                    </technical>
                </notations>
            </note>
            <note>
                <pitch>
                    <step>B</step>
                    <alter>-1</alter>
                    <octave>3</octave>
                </pitch>
                <duration>1</duration>
                <voice>5</voice>
                <type>quarter</type>
                <stem>down</stem>
                <staff>2</staff>
                <notations>
                    <technical>
                        <string>4</string>
                        <fret>8</fret>
                    </technical>
                </notations>
            </note>
            <note>
                <pitch>
                    <step>B</step>
                    <alter>-1</alter>
                    <octave>2</octave>
                </pitch>
                <duration>1</duration>
                <voice>5</voice>
                <type>quarter</type>
                <accidental>flat</accidental>
                <stem>up</stem>
                <staff>2</staff>
                <notations>
                    <technical>
                        <string>5</string>
                        <fret>1</fret>
                    </technical>
                </notations>
            </note>
            <note>
                <pitch>
                    <step>B</step>
                    <alter>-1</alter>
                    <octave>2</octave>
                </pitch>
                <duration>1</duration>
                <voice>5</voice>
                <type>quarter</type>
                <stem>up</stem>
                <staff>2</staff>
                <notations>
                    <technical>
                        <string>6</string>
                        <fret>6</fret>
                    </technical>
                </notations>
            </note>
        </measure>
        <measure number="3" id="Eflat-up">
            <direction>
                <direction-type>
                    <words>Eb ↑</words>
                </direction-type>
            </direction>
            <attributes>
                <key>
                    <fifths>-2</fifths>
                    <mode>major</mode>
                </key>
            </attributes>
            <harmony>
                <root>
                    <root-step>C</root-step>
                    <root-alter>0</root-alter>
                </root>
                <kind>other</kind>
                <frame>
                    <frame-strings>6</frame-strings>
                    <frame-frets>5</frame-frets>
                    <first-fret>11</first-fret>
                    <frame-note>
                        <string>6</string>
                        <fret>11</fret>
                    </frame-note>
                </frame>
            </harmony>
            <note>
                <pitch>
                    <step>E</step>
                    <alter>-1</alter>
                    <octave>4</octave>
                </pitch>
                <duration>1</duration>
                <voice>1</voice>
                <type>quarter</type>
                <accidental>flat</accidental>
                <stem>up</stem>
                <notehead>normal</notehead>
                <staff>1</staff>
            </note>
            <note>
                <pitch>
                    <step>E</step>
                    <alter>-1</alter>
                    <octave>4</octave>
                </pitch>
                <duration>1</duration>
                <voice>1</voice>
                <type>quarter</type>
                <stem>up</stem>
                <notehead>normal</notehead>
                <staff>1</staff>
            </note>
            <note>
                <pitch>
                    <step>E</step>
                    <alter>-1</alter>
                    <octave>4</octave>
                </pitch>
                <duration>1</duration>
                <voice>1</voice>
                <type>quarter</type>
                <stem>up</stem>
                <notehead>normal</notehead>
                <staff>1</staff>
            </note>
            <note>
                <pitch>
                    <step>E</step>
                    <alter>-1</alter>
                    <octave>5</octave>
                </pitch>
                <duration>1</duration>
                <voice>1</voice>
                <type>quarter</type>
                <accidental>flat</accidental>
                <stem>down</stem>
                <notehead>normal</notehead>
                <staff>1</staff>
            </note>
            <note>
                <pitch>
                    <step>E</step>
                    <alter>-1</alter>
                    <octave>5</octave>
                </pitch>
                <duration>1</duration>
                <voice>1</voice>
                <type>quarter</type>
                <stem>down</stem>
                <notehead>normal</notehead>
                <staff>1</staff>
            </note>
            <note>
                <pitch>
                    <step>E</step>
                    <alter>-1</alter>
                    <octave>6</octave>
                </pitch>
                <duration>1</duration>
                <voice>1</voice>
                <type>quarter</type>
                <accidental>flat</accidental>
                <stem>down</stem>
                <notehead>normal</notehead>
                <staff>1</staff>
            </note>
            <backup>
                <duration>6</duration>
            </backup>
            <harmony>
                <root>
                    <root-step>C</root-step>
                    <root-alter>0</root-alter>
                </root>
                <kind>other</kind>
                <frame>
                    <frame-strings>6</frame-strings>
                    <frame-frets>5</frame-frets>
                    <first-fret>11</first-fret>
                    <frame-note>
                        <string>6</string>
                        <fret>11</fret>
                    </frame-note>
                </frame>
            </harmony>
            <note>
                <pitch>
                    <step>E</step>
                    <alter>-1</alter>
                    <octave>3</octave>
                </pitch>
                <duration>1</duration>
                <voice>5</voice>
                <type>quarter</type>
                <accidental>flat</accidental>
                <stem>up</stem>
                <staff>2</staff>
                <notations>
                    <technical>
                        <string>6</string>
                        <fret>11</fret>
                    </technical>
                </notations>
            </note>
            <note>
                <pitch>
                    <step>E</step>
                    <alter>-1</alter>
                    <octave>3</octave>
                </pitch>
                <duration>1</duration>
                <voice>5</voice>
                <type>quarter</type>
                <stem>up</stem>
                <staff>2</staff>
                <notations>
                    <technical>
                        <string>5</string>
                        <fret>6</fret>
                    </technical>
                </notations>
            </note>
            <note>
                <pitch>
                    <step>E</step>
                    <alter>-1</alter>
                    <octave>3</octave>
                </pitch>
                <duration>1</duration>
                <voice>5</voice>
                <type>quarter</type>
                <stem>up</stem>
                <staff>2</staff>
                <notations>
                    <technical>
                        <string>4</string>
                        <fret>1</fret>
                    </technical>
                </notations>
            </note>
            <note>
                <pitch>
                    <step>E</step>
                    <alter>-1</alter>
                    <octave>4</octave>
                </pitch>
                <duration>1</duration>
                <voice>5</voice>
                <type>quarter</type>
                <accidental>flat</accidental>
                <stem>down</stem>
                <staff>2</staff>
                <notations>
                    <technical>
                        <string>3</string>
                        <fret>8</fret>
                    </technical>
                </notations>
            </note>
            <note>
                <pitch>
                    <step>E</step>
                    <alter>-1</alter>
                    <octave>4</octave>
                </pitch>
                <duration>1</duration>
                <voice>5</voice>
                <type>quarter</type>
                <stem>down</stem>
                <staff>2</staff>
                <notations>
                    <technical>
                        <string>2</string>
                        <fret>4</fret>
                    </technical>
                </notations>
            </note>
            <note>
                <pitch>
                    <step>E</step>
                    <alter>-1</alter>
                    <octave>5</octave>
                </pitch>
                <duration>1</duration>
                <voice>5</voice>
                <type>quarter</type>
                <accidental>flat</accidental>
                <stem>down</stem>
                <staff>2</staff>
                <notations>
                    <technical>
                        <string>1</string>
                        <fret>11</fret>
                    </technical>
                </notations>
            </note>
        </measure>
        <measure number="4" id="Eflat-down">
            <print new-system="yes"/>
            <direction>
                <direction-type>
                    <words>Eb ↓</words>
                </direction-type>
            </direction>
            <attributes>
                <key>
                    <fifths>-2</fifths>
                    <mode>major</mode>
                </key>
            </attributes>
            <harmony>
                <root>
                    <root-step>C</root-step>
                    <root-alter>0</root-alter>
                </root>
                <kind>other</kind>
                <frame>
                    <frame-strings>6</frame-strings>
                    <frame-frets>5</frame-frets>
                    <first-fret>11</first-fret>
                    <frame-note>
                        <string>1</string>
                        <fret>11</fret>
                    </frame-note>
                </frame>
            </harmony>
            <note>
                <pitch>
                    <step>E</step>
                    <alter>-1</alter>
                    <octave>6</octave>
                </pitch>
                <duration>1</duration>
                <voice>1</voice>
                <type>quarter</type>
                <accidental>flat</accidental>
                <stem>down</stem>
                <notehead>normal</notehead>
                <staff>1</staff>
            </note>
            <note>
                <pitch>
                    <step>E</step>
                    <alter>-1</alter>
                    <octave>5</octave>
                </pitch>
                <duration>1</duration>
                <voice>1</voice>
                <type>quarter</type>
                <accidental>flat</accidental>
                <stem>down</stem>
                <notehead>normal</notehead>
                <staff>1</staff>
            </note>
            <note>
                <pitch>
                    <step>E</step>
                    <alter>-1</alter>
                    <octave>5</octave>
                </pitch>
                <duration>1</duration>
                <voice>1</voice>
                <type>quarter</type>
                <stem>down</stem>
                <notehead>normal</notehead>
                <staff>1</staff>
            </note>
            <note>
                <pitch>
                    <step>E</step>
                    <alter>-1</alter>
                    <octave>4</octave>
                </pitch>
                <duration>1</duration>
                <voice>1</voice>
                <type>quarter</type>
                <accidental>flat</accidental>
                <stem>up</stem>
                <notehead>normal</notehead>
                <staff>1</staff>
            </note>
            <note>
                <pitch>
                    <step>E</step>
                    <alter>-1</alter>
                    <octave>4</octave>
                </pitch>
                <duration>1</duration>
                <voice>1</voice>
                <type>quarter</type>
                <stem>up</stem>
                <notehead>normal</notehead>
                <staff>1</staff>
            </note>
            <note>
                <pitch>
                    <step>E</step>
                    <alter>-1</alter>
                    <octave>4</octave>
                </pitch>
                <duration>1</duration>
                <voice>1</voice>
                <type>quarter</type>
                <stem>up</stem>
                <notehead>normal</notehead>
                <staff>1</staff>
            </note>
            <backup>
                <duration>6</duration>
            </backup>
            <harmony>
                <root>
                    <root-step>C</root-step>
                    <root-alter>0</root-alter>
                </root>
                <kind>other</kind>
                <frame>
                    <frame-strings>6</frame-strings>
                    <frame-frets>5</frame-frets>
                    <first-fret>11</first-fret>
                    <frame-note>
                        <string>1</string>
                        <fret>11</fret>
                    </frame-note>
                </frame>
            </harmony>
            <note>
                <pitch>
                    <step>E</step>
                    <alter>-1</alter>
                    <octave>5</octave>
                </pitch>
                <duration>1</duration>
                <voice>5</voice>
                <type>quarter</type>
                <accidental>flat</accidental>
                <stem>down</stem>
                <staff>2</staff>
                <notations>
                    <technical>
                        <string>1</string>
                        <fret>11</fret>
                    </technical>
                </notations>
            </note>
            <note>
                <pitch>
                    <step>E</step>
                    <alter>-1</alter>
                    <octave>4</octave>
                </pitch>
                <duration>1</duration>
                <voice>5</voice>
                <type>quarter</type>
                <accidental>flat</accidental>
                <stem>down</stem>
                <staff>2</staff>
                <notations>
                    <technical>
                        <string>2</string>
                        <fret>4</fret>
                    </technical>
                </notations>
            </note>
            <note>
                <pitch>
                    <step>E</step>
                    <alter>-1</alter>
                    <octave>4</octave>
                </pitch>
                <duration>1</duration>
                <voice>5</voice>
                <type>quarter</type>
                <stem>down</stem>
                <staff>2</staff>
                <notations>
                    <technical>
                        <string>3</string>
                        <fret>8</fret>
                    </technical>
                </notations>
            </note>
            <note>
                <pitch>
                    <step>E</step>
                    <alter>-1</alter>
                    <octave>3</octave>
                </pitch>
                <duration>1</duration>
                <voice>5</voice>
                <type>quarter</type>
                <accidental>flat</accidental>
                <stem>up</stem>
                <staff>2</staff>
                <notations>
                    <technical>
                        <string>4</string>
                        <fret>1</fret>
                    </technical>
                </notations>
            </note>
            <note>
                <pitch>
                    <step>E</step>
                    <alter>-1</alter>
                    <octave>3</octave>
                </pitch>
                <duration>1</duration>
                <voice>5</voice>
                <type>quarter</type>
                <stem>up</stem>
                <staff>2</staff>
                <notations>
                    <technical>
                        <string>5</string>
                        <fret>6</fret>
                    </technical>
                </notations>
            </note>
            <note>
                <pitch>
                    <step>E</step>
                    <alter>-1</alter>
                    <octave>3</octave>
                </pitch>
                <duration>1</duration>
                <voice>5</voice>
                <type>quarter</type>
                <stem>up</stem>
                <staff>2</staff>
                <notations>
                    <technical>
                        <string>6</string>
                        <fret>11</fret>
                    </technical>
                </notations>
            </note>
        </measure>
        <measure number="5" id="Aflat-up">
            <direction>
                <direction-type>
                    <words>Ab ↑</words>
                </direction-type>
            </direction>
            <attributes>
                <key>
                    <fifths>-3</fifths>
                    <mode>major</mode>
                </key>
            </attributes>
            <harmony>
                <root>
                    <root-step>C</root-step>
                    <root-alter>0</root-alter>
                </root>
                <kind>other</kind>
                <frame>
                    <frame-strings>6</frame-strings>
                    <frame-frets>5</frame-frets>
                    <first-fret>1</first-fret>
                    <frame-note>
                        <string>6</string>
                        <fret>4</fret>
                    </frame-note>
                </frame>
            </harmony>
            <note>
                <pitch>
                    <step>A</step>
                    <alter>-1</alter>
                    <octave>3</octave>
                </pitch>
                <duration>1</duration>
                <voice>1</voice>
                <type>quarter</type>
                <accidental>flat</accidental>
                <stem>up</stem>
                <notehead>normal</notehead>
                <staff>1</staff>
            </note>
            <note>
                <pitch>
                    <step>A</step>
                    <alter>-1</alter>
                    <octave>4</octave>
                </pitch>
                <duration>1</duration>
                <voice>1</voice>
                <type>quarter</type>
                <accidental>flat</accidental>
                <stem>up</stem>
                <notehead>normal</notehead>
                <staff>1</staff>
            </note>
            <note>
                <pitch>
                    <step>A</step>
                    <alter>-1</alter>
                    <octave>4</octave>
                </pitch>
                <duration>1</duration>
                <voice>1</voice>
                <type>quarter</type>
                <stem>up</stem>
                <notehead>normal</notehead>
                <staff>1</staff>
            </note>
            <note>
                <pitch>
                    <step>A</step>
                    <alter>-1</alter>
                    <octave>4</octave>
                </pitch>
                <duration>1</duration>
                <voice>1</voice>
                <type>quarter</type>
                <stem>up</stem>
                <notehead>normal</notehead>
                <staff>1</staff>
            </note>
            <note>
                <pitch>
                    <step>A</step>
                    <alter>-1</alter>
                    <octave>5</octave>
                </pitch>
                <duration>1</duration>
                <voice>1</voice>
                <type>quarter</type>
                <accidental>flat</accidental>
                <stem>down</stem>
                <notehead>normal</notehead>
                <staff>1</staff>
            </note>
            <note>
                <pitch>
                    <step>A</step>
                    <alter>-1</alter>
                    <octave>5</octave>
                </pitch>
                <duration>1</duration>
                <voice>1</voice>
                <type>quarter</type>
                <stem>down</stem>
                <notehead>normal</notehead>
                <staff>1</staff>
            </note>
            <backup>
                <duration>6</duration>
            </backup>
            <harmony>
                <root>
                    <root-step>C</root-step>
                    <root-alter>0</root-alter>
                </root>
                <kind>other</kind>
                <frame>
                    <frame-strings>6</frame-strings>
                    <frame-frets>5</frame-frets>
                    <first-fret>1</first-fret>
                    <frame-note>
                        <string>6</string>
                        <fret>4</fret>
                    </frame-note>
                </frame>
            </harmony>
            <note>
                <pitch>
                    <step>A</step>
                    <alter>-1</alter>
                    <octave>2</octave>
                </pitch>
                <duration>1</duration>
                <voice>5</voice>
                <type>quarter</type>
                <accidental>flat</accidental>
                <stem>up</stem>
                <staff>2</staff>
                <notations>
                    <technical>
                        <string>6</string>
                        <fret>4</fret>
                    </technical>
                </notations>
            </note>
            <note>
                <pitch>
                    <step>A</step>
                    <alter>-1</alter>
                    <octave>3</octave>
                </pitch>
                <duration>1</duration>
                <voice>5</voice>
                <type>quarter</type>
                <accidental>flat</accidental>
                <stem>up</stem>
                <staff>2</staff>
                <notations>
                    <technical>
                        <string>5</string>
                        <fret>11</fret>
                    </technical>
                </notations>
            </note>
            <note>
                <pitch>
                    <step>A</step>
                    <alter>-1</alter>
                    <octave>3</octave>
                </pitch>
                <duration>1</duration>
                <voice>5</voice>
                <type>quarter</type>
                <stem>up</stem>
                <staff>2</staff>
                <notations>
                    <technical>
                        <string>4</string>
                        <fret>6</fret>
                    </technical>
                </notations>
            </note>
            <note>
                <pitch>
                    <step>A</step>
                    <alter>-1</alter>
                    <octave>3</octave>
                </pitch>
                <duration>1</duration>
                <voice>5</voice>
                <type>quarter</type>
                <stem>up</stem>
                <staff>2</staff>
                <notations>
                    <technical>
                        <string>3</string>
                        <fret>1</fret>
                    </technical>
                </notations>
            </note>
            <note>
                <pitch>
                    <step>A</step>
                    <alter>-1</alter>
                    <octave>4</octave>
                </pitch>
                <duration>1</duration>
                <voice>5</voice>
                <type>quarter</type>
                <accidental>flat</accidental>
                <stem>down</stem>
                <staff>2</staff>
                <notations>
                    <technical>
                        <string>2</string>
                        <fret>9</fret>
                    </technical>
                </notations>
            </note>
            <note>
                <pitch>
                    <step>A</step>
                    <alter>-1</alter>
                    <octave>4</octave>
                </pitch>
                <duration>1</duration>
                <voice>5</voice>
                <type>quarter</type>
                <stem>down</stem>
                <staff>2</staff>
                <notations>
                    <technical>
                        <string>1</string>
                        <fret>4</fret>
                    </technical>
                </notations>
            </note>
        </measure>
        <measure number="6" id="Aflat-down">
            <direction>
                <direction-type>
                    <words>Ab ↓</words>
                </direction-type>
            </direction>
            <attributes>
                <key>
                    <fifths>-3</fifths>
                    <mode>major</mode>
                </key>
            </attributes>
            <harmony>
                <root>
                    <root-step>C</root-step>
                    <root-alter>0</root-alter>
                </root>
                <kind>other</kind>
                <frame>
                    <frame-strings>6</frame-strings>
                    <frame-frets>5</frame-frets>
                    <first-fret>1</first-fret>
                    <frame-note>
                        <string>1</string>
                        <fret>4</fret>
                    </frame-note>
                </frame>
            </harmony>
            <note>
                <pitch>
                    <step>A</step>
                    <alter>-1</alter>
                    <octave>5</octave>
                </pitch>
                <duration>1</duration>
                <voice>1</voice>
                <type>quarter</type>
                <accidental>flat</accidental>
                <stem>down</stem>
                <notehead>normal</notehead>
                <staff>1</staff>
            </note>
            <note>
                <pitch>
                    <step>A</step>
                    <alter>-1</alter>
                    <octave>5</octave>
                </pitch>
                <duration>1</duration>
                <voice>1</voice>
                <type>quarter</type>
                <stem>down</stem>
                <notehead>normal</notehead>
                <staff>1</staff>
            </note>
            <note>
                <pitch>
                    <step>A</step>
                    <alter>-1</alter>
                    <octave>4</octave>
                </pitch>
                <duration>1</duration>
                <voice>1</voice>
                <type>quarter</type>
                <accidental>flat</accidental>
                <stem>up</stem>
                <notehead>normal</notehead>
                <staff>1</staff>
            </note>
            <note>
                <pitch>
                    <step>A</step>
                    <alter>-1</alter>
                    <octave>4</octave>
                </pitch>
                <duration>1</duration>
                <voice>1</voice>
                <type>quarter</type>
                <stem>up</stem>
                <notehead>normal</notehead>
                <staff>1</staff>
            </note>
            <note>
                <pitch>
                    <step>A</step>
                    <alter>-1</alter>
                    <octave>4</octave>
                </pitch>
                <duration>1</duration>
                <voice>1</voice>
                <type>quarter</type>
                <stem>up</stem>
                <notehead>normal</notehead>
                <staff>1</staff>
            </note>
            <note>
                <pitch>
                    <step>A</step>
                    <alter>-1</alter>
                    <octave>3</octave>
                </pitch>
                <duration>1</duration>
                <voice>1</voice>
                <type>quarter</type>
                <accidental>flat</accidental>
                <stem>up</stem>
                <notehead>normal</notehead>
                <staff>1</staff>
            </note>
            <backup>
                <duration>6</duration>
            </backup>
            <harmony>
                <root>
                    <root-step>C</root-step>
                    <root-alter>0</root-alter>
                </root>
                <kind>other</kind>
                <frame>
                    <frame-strings>6</frame-strings>
                    <frame-frets>5</frame-frets>
                    <first-fret>1</first-fret>
                    <frame-note>
                        <string>1</string>
                        <fret>4</fret>
                    </frame-note>
                </frame>
            </harmony>
            <note>
                <pitch>
                    <step>A</step>
                    <alter>-1</alter>
                    <octave>4</octave>
                </pitch>
                <duration>1</duration>
                <voice>5</voice>
                <type>quarter</type>
                <accidental>flat</accidental>
                <stem>down</stem>
                <staff>2</staff>
                <notations>
                    <technical>
                        <string>1</string>
                        <fret>4</fret>
                    </technical>
                </notations>
            </note>
            <note>
                <pitch>
                    <step>A</step>
                    <alter>-1</alter>
                    <octave>4</octave>
                </pitch>
                <duration>1</duration>
                <voice>5</voice>
                <type>quarter</type>
                <stem>down</stem>
                <staff>2</staff>
                <notations>
                    <technical>
                        <string>2</string>
                        <fret>9</fret>
                    </technical>
                </notations>
            </note>
            <note>
                <pitch>
                    <step>A</step>
                    <alter>-1</alter>
                    <octave>3</octave>
                </pitch>
                <duration>1</duration>
                <voice>5</voice>
                <type>quarter</type>
                <accidental>flat</accidental>
                <stem>up</stem>
                <staff>2</staff>
                <notations>
                    <technical>
                        <string>3</string>
                        <fret>1</fret>
                    </technical>
                </notations>
            </note>
            <note>
                <pitch>
                    <step>A</step>
                    <alter>-1</alter>
                    <octave>3</octave>
                </pitch>
                <duration>1</duration>
                <voice>5</voice>
                <type>quarter</type>
                <stem>up</stem>
                <staff>2</staff>
                <notations>
                    <technical>
                        <string>4</string>
                        <fret>6</fret>
                    </technical>
                </notations>
            </note>
            <note>
                <pitch>
                    <step>A</step>
                    <alter>-1</alter>
                    <octave>3</octave>
                </pitch>
                <duration>1</duration>
                <voice>5</voice>
                <type>quarter</type>
                <stem>up</stem>
                <staff>2</staff>
                <notations>
                    <technical>
                        <string>5</string>
                        <fret>11</fret>
                    </technical>
                </notations>
            </note>
            <note>
                <pitch>
                    <step>A</step>
                    <alter>-1</alter>
                    <octave>2</octave>
                </pitch>
                <duration>1</duration>
                <voice>5</voice>
                <type>quarter</type>
                <accidental>flat</accidental>
                <stem>up</stem>
                <staff>2</staff>
                <notations>
                    <technical>
                        <string>6</string>
                        <fret>4</fret>
                    </technical>
                </notations>
            </note>
        </measure>
        <measure number="7" id="Dflat-up">
            <direction>
                <direction-type>
                    <words>Db ↑</words>
                </direction-type>
            </direction>
            <attributes>
                <key>
                    <fifths>-4</fifths>
                    <mode>major</mode>
                </key>
            </attributes>
            <harmony>
                <root>
                    <root-step>C</root-step>
                    <root-alter>0</root-alter>
                </root>
                <kind>other</kind>
                <frame>
                    <frame-strings>6</frame-strings>
                    <frame-frets>5</frame-frets>
                    <first-fret>9</first-fret>
                    <frame-note>
                        <string>6</string>
                        <fret>9</fret>
                    </frame-note>
                </frame>
            </harmony>
            <note>
                <pitch>
                    <step>D</step>
                    <alter>-1</alter>
                    <octave>4</octave>
                </pitch>
                <duration>1</duration>
                <voice>1</voice>
                <type>quarter</type>
                <stem>up</stem>
                <notehead>normal</notehead>
                <staff>1</staff>
            </note>
            <note>
                <pitch>
                    <step>D</step>
                    <alter>-1</alter>
                    <octave>4</octave>
                </pitch>
                <duration>1</duration>
                <voice>1</voice>
                <type>quarter</type>
                <stem>up</stem>
                <notehead>normal</notehead>
                <staff>1</staff>
            </note>
            <note>
                <pitch>
                    <step>D</step>
                    <alter>-1</alter>
                    <octave>5</octave>
                </pitch>
                <duration>1</duration>
                <voice>1</voice>
                <type>quarter</type>
                <stem>down</stem>
                <notehead>normal</notehead>
                <staff>1</staff>
            </note>
            <note>
                <pitch>
                    <step>D</step>
                    <alter>-1</alter>
                    <octave>5</octave>
                </pitch>
                <duration>1</duration>
                <voice>1</voice>
                <type>quarter</type>
                <stem>down</stem>
                <notehead>normal</notehead>
                <staff>1</staff>
            </note>
            <note>
                <pitch>
                    <step>D</step>
                    <alter>-1</alter>
                    <octave>5</octave>
                </pitch>
                <duration>1</duration>
                <voice>1</voice>
                <type>quarter</type>
                <stem>down</stem>
                <notehead>normal</notehead>
                <staff>1</staff>
            </note>
            <note>
                <pitch>
                    <step>D</step>
                    <alter>-1</alter>
                    <octave>6</octave>
                </pitch>
                <duration>1</duration>
                <voice>1</voice>
                <type>quarter</type>
                <stem>down</stem>
                <notehead>normal</notehead>
                <staff>1</staff>
            </note>
            <backup>
                <duration>6</duration>
            </backup>
            <harmony>
                <root>
                    <root-step>C</root-step>
                    <root-alter>0</root-alter>
                </root>
                <kind>other</kind>
                <frame>
                    <frame-strings>6</frame-strings>
                    <frame-frets>5</frame-frets>
                    <first-fret>9</first-fret>
                    <frame-note>
                        <string>6</string>
                        <fret>9</fret>
                    </frame-note>
                </frame>
            </harmony>
            <note>
                <pitch>
                    <step>D</step>
                    <alter>-1</alter>
                    <octave>3</octave>
                </pitch>
                <duration>1</duration>
                <voice>5</voice>
                <type>quarter</type>
                <stem>up</stem>
                <staff>2</staff>
                <notations>
                    <technical>
                        <string>6</string>
                        <fret>9</fret>
                    </technical>
                </notations>
            </note>
            <note>
                <pitch>
                    <step>D</step>
                    <alter>-1</alter>
                    <octave>3</octave>
                </pitch>
                <duration>1</duration>
                <voice>5</voice>
                <type>quarter</type>
                <stem>up</stem>
                <staff>2</staff>
                <notations>
                    <technical>
                        <string>5</string>
                        <fret>4</fret>
                    </technical>
                </notations>
            </note>
            <note>
                <pitch>
                    <step>D</step>
                    <alter>-1</alter>
                    <octave>4</octave>
                </pitch>
                <duration>1</duration>
                <voice>5</voice>
                <type>quarter</type>
                <stem>down</stem>
                <staff>2</staff>
                <notations>
                    <technical>
                        <string>4</string>
                        <fret>11</fret>
                    </technical>
                </notations>
            </note>
            <note>
                <pitch>
                    <step>D</step>
                    <alter>-1</alter>
                    <octave>4</octave>
                </pitch>
                <duration>1</duration>
                <voice>5</voice>
                <type>quarter</type>
                <stem>down</stem>
                <staff>2</staff>
                <notations>
                    <technical>
                        <string>3</string>
                        <fret>6</fret>
                    </technical>
                </notations>
            </note>
            <note>
                <pitch>
                    <step>D</step>
                    <alter>-1</alter>
                    <octave>4</octave>
                </pitch>
                <duration>1</duration>
                <voice>5</voice>
                <type>quarter</type>
                <stem>down</stem>
                <staff>2</staff>
                <notations>
                    <technical>
                        <string>2</string>
                        <fret>2</fret>
                    </technical>
                </notations>
            </note>
            <note>
                <pitch>
                    <step>D</step>
                    <alter>-1</alter>
                    <octave>5</octave>
                </pitch>
                <duration>1</duration>
                <voice>5</voice>
                <type>quarter</type>
                <stem>down</stem>
                <staff>2</staff>
                <notations>
                    <technical>
                        <string>1</string>
                        <fret>9</fret>
                    </technical>
                </notations>
            </note>
        </measure>
        <measure number="8" id="Dflat-down">
            <direction>
                <direction-type>
                    <words>Db ↓</words>
                </direction-type>
            </direction>
            <attributes>
                <key>
                    <fifths>-4</fifths>
                    <mode>major</mode>
                </key>
            </attributes>
            <harmony>
                <root>
                    <root-step>C</root-step>
                    <root-alter>0</root-alter>
                </root>
                <kind>other</kind>
                <frame>
                    <frame-strings>6</frame-strings>
                    <frame-frets>5</frame-frets>
                    <first-fret>9</first-fret>
                    <frame-note>
                        <string>1</string>
                        <fret>9</fret>
                    </frame-note>
                </frame>
            </harmony>
            <note>
                <pitch>
                    <step>D</step>
                    <alter>-1</alter>
                    <octave>6</octave>
                </pitch>
                <duration>1</duration>
                <voice>1</voice>
                <type>quarter</type>
                <stem>down</stem>
                <notehead>normal</notehead>
                <staff>1</staff>
            </note>
            <note>
                <pitch>
                    <step>D</step>
                    <alter>-1</alter>
                    <octave>5</octave>
                </pitch>
                <duration>1</duration>
                <voice>1</voice>
                <type>quarter</type>
                <stem>down</stem>
                <notehead>normal</notehead>
                <staff>1</staff>
            </note>
            <note>
                <pitch>
                    <step>D</step>
                    <alter>-1</alter>
                    <octave>5</octave>
                </pitch>
                <duration>1</duration>
                <voice>1</voice>
                <type>quarter</type>
                <stem>down</stem>
                <notehead>normal</notehead>
                <staff>1</staff>
            </note>
            <note>
                <pitch>
                    <step>D</step>
                    <alter>-1</alter>
                    <octave>5</octave>
                </pitch>
                <duration>1</duration>
                <voice>1</voice>
                <type>quarter</type>
                <stem>down</stem>
                <notehead>normal</notehead>
                <staff>1</staff>
            </note>
            <note>
                <pitch>
                    <step>D</step>
                    <alter>-1</alter>
                    <octave>4</octave>
                </pitch>
                <duration>1</duration>
                <voice>1</voice>
                <type>quarter</type>
                <stem>up</stem>
                <notehead>normal</notehead>
                <staff>1</staff>
            </note>
            <note>
                <pitch>
                    <step>D</step>
                    <alter>-1</alter>
                    <octave>4</octave>
                </pitch>
                <duration>1</duration>
                <voice>1</voice>
                <type>quarter</type>
                <stem>up</stem>
                <notehead>normal</notehead>
                <staff>1</staff>
            </note>
            <backup>
                <duration>6</duration>
            </backup>
            <harmony>
                <root>
                    <root-step>C</root-step>
                    <root-alter>0</root-alter>
                </root>
                <kind>other</kind>
                <frame>
                    <frame-strings>6</frame-strings>
                    <frame-frets>5</frame-frets>
                    <first-fret>9</first-fret>
                    <frame-note>
                        <string>1</string>
                        <fret>9</fret>
                    </frame-note>
                </frame>
            </harmony>
            <note>
                <pitch>
                    <step>D</step>
                    <alter>-1</alter>
                    <octave>5</octave>
                </pitch>
                <duration>1</duration>
                <voice>5</voice>
                <type>quarter</type>
                <stem>down</stem>
                <staff>2</staff>
                <notations>
                    <technical>
                        <string>1</string>
                        <fret>9</fret>
                    </technical>
                </notations>
            </note>
            <note>
                <pitch>
                    <step>D</step>
                    <alter>-1</alter>
                    <octave>4</octave>
                </pitch>
                <duration>1</duration>
                <voice>5</voice>
                <type>quarter</type>
                <stem>down</stem>
                <staff>2</staff>
                <notations>
                    <technical>
                        <string>2</string>
                        <fret>2</fret>
                    </technical>
                </notations>
            </note>
            <note>
                <pitch>
                    <step>D</step>
                    <alter>-1</alter>
                    <octave>4</octave>
                </pitch>
                <duration>1</duration>
                <voice>5</voice>
                <type>quarter</type>
                <stem>down</stem>
                <staff>2</staff>
                <notations>
                    <technical>
                        <string>3</string>
                        <fret>6</fret>
                    </technical>
                </notations>
            </note>
            <note>
                <pitch>
                    <step>D</step>
                    <alter>-1</alter>
                    <octave>4</octave>
                </pitch>
                <duration>1</duration>
                <voice>5</voice>
                <type>quarter</type>
                <stem>down</stem>
                <staff>2</staff>
                <notations>
                    <technical>
                        <string>4</string>
                        <fret>11</fret>
                    </technical>
                </notations>
            </note>
            <note>
                <pitch>
                    <step>D</step>
                    <alter>-1</alter>
                    <octave>3</octave>
                </pitch>
                <duration>1</duration>
                <voice>5</voice>
                <type>quarter</type>
                <stem>up</stem>
                <staff>2</staff>
                <notations>
                    <technical>
                        <string>5</string>
                        <fret>4</fret>
                    </technical>
                </notations>
            </note>
            <note>
                <pitch>
                    <step>D</step>
                    <alter>-1</alter>
                    <octave>3</octave>
                </pitch>
                <duration>1</duration>
                <voice>5</voice>
                <type>quarter</type>
                <stem>up</stem>
                <staff>2</staff>
                <notations>
                    <technical>
                        <string>6</string>
                        <fret>9</fret>
                    </technical>
                </notations>
            </note>
        </measure>
        <measure number="9" id="Gflat-up">
            <direction>
                <direction-type>
                    <words>Gb ↑</words>
                </direction-type>
            </direction>
            <attributes>
                <key>
                    <fifths>-5</fifths>
                    <mode>major</mode>
                </key>
            </attributes>
            <harmony>
                <root>
                    <root-step>C</root-step>
                    <root-alter>0</root-alter>
                </root>
                <kind>other</kind>
                <frame>
                    <frame-strings>6</frame-strings>
                    <frame-frets>5</frame-frets>
                    <first-fret>1</first-fret>
                    <frame-note>
                        <string>6</string>
                        <fret>2</fret>
                    </frame-note>
                </frame>
            </harmony>
            <note>
                <pitch>
                    <step>G</step>
                    <alter>-1</alter>
                    <octave>3</octave>
                </pitch>
                <duration>1</duration>
                <voice>1</voice>
                <type>quarter</type>
                <stem>up</stem>
                <notehead>normal</notehead>
                <staff>1</staff>
            </note>
            <note>
                <pitch>
                    <step>G</step>
                    <alter>-1</alter>
                    <octave>4</octave>
                </pitch>
                <duration>1</duration>
                <voice>1</voice>
                <type>quarter</type>
                <stem>up</stem>
                <notehead>normal</notehead>
                <staff>1</staff>
            </note>
            <note>
                <pitch>
                    <step>G</step>
                    <alter>-1</alter>
                    <octave>4</octave>
                </pitch>
                <duration>1</duration>
                <voice>1</voice>
                <type>quarter</type>
                <stem>up</stem>
                <notehead>normal</notehead>
                <staff>1</staff>
            </note>
            <note>
                <pitch>
                    <step>G</step>
                    <alter>-1</alter>
                    <octave>5</octave>
                </pitch>
                <duration>1</duration>
                <voice>1</voice>
                <type>quarter</type>
                <stem>down</stem>
                <notehead>normal</notehead>
                <staff>1</staff>
            </note>
            <note>
                <pitch>
                    <step>G</step>
                    <alter>-1</alter>
                    <octave>5</octave>
                </pitch>
                <duration>1</duration>
                <voice>1</voice>
                <type>quarter</type>
                <stem>down</stem>
                <notehead>normal</notehead>
                <staff>1</staff>
            </note>
            <note>
                <pitch>
                    <step>G</step>
                    <alter>-1</alter>
                    <octave>5</octave>
                </pitch>
                <duration>1</duration>
                <voice>1</voice>
                <type>quarter</type>
                <stem>down</stem>
                <notehead>normal</notehead>
                <staff>1</staff>
            </note>
            <backup>
                <duration>6</duration>
            </backup>
            <harmony>
                <root>
                    <root-step>C</root-step>
                    <root-alter>0</root-alter>
                </root>
                <kind>other</kind>
                <frame>
                    <frame-strings>6</frame-strings>
                    <frame-frets>5</frame-frets>
                    <first-fret>1</first-fret>
                    <frame-note>
                        <string>6</string>
                        <fret>2</fret>
                    </frame-note>
                </frame>
            </harmony>
            <note>
                <pitch>
                    <step>G</step>
                    <alter>-1</alter>
                    <octave>2</octave>
                </pitch>
                <duration>1</duration>
                <voice>5</voice>
                <type>quarter</type>
                <stem>up</stem>
                <staff>2</staff>
                <notations>
                    <technical>
                        <string>6</string>
                        <fret>2</fret>
                    </technical>
                </notations>
            </note>
            <note>
                <pitch>
                    <step>G</step>
                    <alter>-1</alter>
                    <octave>3</octave>
                </pitch>
                <duration>1</duration>
                <voice>5</voice>
                <type>quarter</type>
                <stem>up</stem>
                <staff>2</staff>
                <notations>
                    <technical>
                        <string>5</string>
                        <fret>9</fret>
                    </technical>
                </notations>
            </note>
            <note>
                <pitch>
                    <step>G</step>
                    <alter>-1</alter>
                    <octave>3</octave>
                </pitch>
                <duration>1</duration>
                <voice>5</voice>
                <type>quarter</type>
                <stem>up</stem>
                <staff>2</staff>
                <notations>
                    <technical>
                        <string>4</string>
                        <fret>4</fret>
                    </technical>
                </notations>
            </note>
            <note>
                <pitch>
                    <step>G</step>
                    <alter>-1</alter>
                    <octave>4</octave>
                </pitch>
                <duration>1</duration>
                <voice>5</voice>
                <type>quarter</type>
                <stem>down</stem>
                <staff>2</staff>
                <notations>
                    <technical>
                        <string>3</string>
                        <fret>11</fret>
                    </technical>
                </notations>
            </note>
            <note>
                <pitch>
                    <step>G</step>
                    <alter>-1</alter>
                    <octave>4</octave>
                </pitch>
                <duration>1</duration>
                <voice>5</voice>
                <type>quarter</type>
                <stem>down</stem>
                <staff>2</staff>
                <notations>
                    <technical>
                        <string>2</string>
                        <fret>7</fret>
                    </technical>
                </notations>
            </note>
            <note>
                <pitch>
                    <step>G</step>
                    <alter>-1</alter>
                    <octave>4</octave>
                </pitch>
                <duration>1</duration>
                <voice>5</voice>
                <type>quarter</type>
                <stem>down</stem>
                <staff>2</staff>
                <notations>
                    <technical>
                        <string>1</string>
                        <fret>2</fret>
                    </technical>
                </notations>
            </note>
        </measure>
        <measure number="10" id="Gflat-down">
            <direction>
                <direction-type>
                    <words>Gb ↓</words>
                </direction-type>
            </direction>
            <attributes>
                <key>
                    <fifths>-5</fifths>
                    <mode>major</mode>
                </key>
            </attributes>
            <harmony>
                <root>
                    <root-step>C</root-step>
                    <root-alter>0</root-alter>
                </root>
                <kind>other</kind>
                <frame>
                    <frame-strings>6</frame-strings>
                    <frame-frets>5</frame-frets>
                    <first-fret>1</first-fret>
                    <frame-note>
                        <string>1</string>
                        <fret>2</fret>
                    </frame-note>
                </frame>
            </harmony>
            <note>
                <pitch>
                    <step>G</step>
                    <alter>-1</alter>
                    <octave>5</octave>
                </pitch>
                <duration>1</duration>
                <voice>1</voice>
                <type>quarter</type>
                <stem>down</stem>
                <notehead>normal</notehead>
                <staff>1</staff>
            </note>
            <note>
                <pitch>
                    <step>G</step>
                    <alter>-1</alter>
                    <octave>5</octave>
                </pitch>
                <duration>1</duration>
                <voice>1</voice>
                <type>quarter</type>
                <stem>down</stem>
                <notehead>normal</notehead>
                <staff>1</staff>
            </note>
            <note>
                <pitch>
                    <step>G</step>
                    <alter>-1</alter>
                    <octave>5</octave>
                </pitch>
                <duration>1</duration>
                <voice>1</voice>
                <type>quarter</type>
                <stem>down</stem>
                <notehead>normal</notehead>
                <staff>1</staff>
            </note>
            <note>
                <pitch>
                    <step>G</step>
                    <alter>-1</alter>
                    <octave>4</octave>
                </pitch>
                <duration>1</duration>
                <voice>1</voice>
                <type>quarter</type>
                <stem>up</stem>
                <notehead>normal</notehead>
                <staff>1</staff>
            </note>
            <note>
                <pitch>
                    <step>G</step>
                    <alter>-1</alter>
                    <octave>4</octave>
                </pitch>
                <duration>1</duration>
                <voice>1</voice>
                <type>quarter</type>
                <stem>up</stem>
                <notehead>normal</notehead>
                <staff>1</staff>
            </note>
            <note>
                <pitch>
                    <step>G</step>
                    <alter>-1</alter>
                    <octave>3</octave>
                </pitch>
                <duration>1</duration>
                <voice>1</voice>
                <type>quarter</type>
                <stem>up</stem>
                <notehead>normal</notehead>
                <staff>1</staff>
            </note>
            <backup>
                <duration>6</duration>
            </backup>
            <harmony>
                <root>
                    <root-step>C</root-step>
                    <root-alter>0</root-alter>
                </root>
                <kind>other</kind>
                <frame>
                    <frame-strings>6</frame-strings>
                    <frame-frets>5</frame-frets>
                    <first-fret>1</first-fret>
                    <frame-note>
                        <string>1</string>
                        <fret>2</fret>
                    </frame-note>
                </frame>
            </harmony>
            <note>
                <pitch>
                    <step>G</step>
                    <alter>-1</alter>
                    <octave>4</octave>
                </pitch>
                <duration>1</duration>
                <voice>5</voice>
                <type>quarter</type>
                <stem>down</stem>
                <staff>2</staff>
                <notations>
                    <technical>
                        <string>1</string>
                        <fret>2</fret>
                    </technical>
                </notations>
            </note>
            <note>
                <pitch>
                    <step>G</step>
                    <alter>-1</alter>
                    <octave>4</octave>
                </pitch>
                <duration>1</duration>
                <voice>5</voice>
                <type>quarter</type>
                <stem>down</stem>
                <staff>2</staff>
                <notations>
                    <technical>
                        <string>2</string>
                        <fret>7</fret>
                    </technical>
                </notations>
            </note>
            <note>
                <pitch>
                    <step>G</step>
                    <alter>-1</alter>
                    <octave>4</octave>
                </pitch>
                <duration>1</duration>
                <voice>5</voice>
                <type>quarter</type>
                <stem>down</stem>
                <staff>2</staff>
                <notations>
                    <technical>
                        <string>3</string>
                        <fret>11</fret>
                    </technical>
                </notations>
            </note>
            <note>
                <pitch>
                    <step>G</step>
                    <alter>-1</alter>
                    <octave>3</octave>
                </pitch>
                <duration>1</duration>
                <voice>5</voice>
                <type>quarter</type>
                <stem>up</stem>
                <staff>2</staff>
                <notations>
                    <technical>
                        <string>4</string>
                        <fret>4</fret>
                    </technical>
                </notations>
            </note>
            <note>
                <pitch>
                    <step>G</step>
                    <alter>-1</alter>
                    <octave>3</octave>
                </pitch>
                <duration>1</duration>
                <voice>5</voice>
                <type>quarter</type>
                <stem>up</stem>
                <staff>2</staff>
                <notations>
                    <technical>
                        <string>5</string>
                        <fret>9</fret>
                    </technical>
                </notations>
            </note>
            <note>
                <pitch>
                    <step>G</step>
                    <alter>-1</alter>
                    <octave>2</octave>
                </pitch>
                <duration>1</duration>
                <voice>5</voice>
                <type>quarter</type>
                <stem>up</stem>
                <staff>2</staff>
                <notations>
                    <technical>
                        <string>6</string>
                        <fret>2</fret>
                    </technical>
                </notations>
            </note>
        </measure>
    </part>
</score-partwise>
